# xmcd
# 
# Track frame offsets:
#     182
#     15247
#     44795
#     64242
#     76610
#     100155
#     124107
#     151620
# 
# Disc length: 2336
# 
# Revision: 1
# Processed by: cddbd v1.5.2PL0 Copyright (c) Steve Scherf et al.
# Submitted via: fre:ac v1.0.31
# 
DISCID=54091e08
DTITLE=Louie Louie - The Thought Of It
DYEAR=1993
DGENRE=New Jack Swing
TTITLE0=The Thought Of It [Single Version]
TTITLE1=The Thought Of It [Backstabbers Club Mix]
TTITLE2=The Thought Of It [Louie's Fave Mix]
TTITLE3=The Beat Got Stronger
TTITLE4=The Thought Of It [The Other Man Mix]
TTITLE5=The Thought Of It [Nu Solution Mix]
TTITLE6=The Thought Of It [Power Mix]
TTITLE7=The Thought Of It [Backstabbing Dub Mix]
EXTD=
EXTT0=
EXTT1=
EXTT2=
EXTT3=
EXTT4=
EXTT5=
EXTT6=
EXTT7=
PLAYORDER=
